<mxfile host="app.diagrams.net" modified="2021-10-11T13:13:56.673Z" agent="5.0 (X11; Linux x86_64) AppleWebKit/537.36 (KHTML, like Gecko) Chrome/94.0.4606.61 Safari/537.36" etag="X9UxlGj-EeiMbqCjA-JJ" version="15.4.2" type="github">
  <diagram name="Page-1" id="5f0bae14-7c28-e335-631c-24af17079c00">
    <mxGraphModel dx="2012" dy="1133" grid="1" gridSize="10" guides="1" tooltips="1" connect="1" arrows="1" fold="1" page="1" pageScale="1" pageWidth="1100" pageHeight="850" background="none" math="0" shadow="0">
      <root>
        <mxCell id="0" />
        <mxCell id="1" parent="0" />
        <mxCell id="39150e848f15840c-1" value="Own Cloud Back-end&lt;br&gt;" style="verticalAlign=top;align=left;spacingTop=8;spacingLeft=2;spacingRight=12;shape=cube;size=10;direction=south;fontStyle=4;html=1;rounded=0;shadow=0;comic=0;labelBackgroundColor=none;strokeWidth=1;fontFamily=Verdana;fontSize=12" parent="1" vertex="1">
          <mxGeometry x="120" y="60" width="330" height="260" as="geometry" />
        </mxCell>
        <mxCell id="39150e848f15840c-2" value="3-rd party services" style="verticalAlign=top;align=left;spacingTop=8;spacingLeft=2;spacingRight=12;shape=cube;size=10;direction=south;fontStyle=4;html=1;rounded=0;shadow=0;comic=0;labelBackgroundColor=none;strokeWidth=1;fontFamily=Verdana;fontSize=12" parent="1" vertex="1">
          <mxGeometry x="530" y="60" width="420" height="260" as="geometry" />
        </mxCell>
        <mxCell id="39150e848f15840c-3" value="Clients" style="verticalAlign=top;align=left;spacingTop=8;spacingLeft=2;spacingRight=12;shape=cube;size=10;direction=south;fontStyle=4;html=1;rounded=0;shadow=0;comic=0;labelBackgroundColor=none;strokeWidth=1;fontFamily=Verdana;fontSize=12" parent="1" vertex="1">
          <mxGeometry x="280" y="550" width="470" height="150" as="geometry" />
        </mxCell>
        <mxCell id="39150e848f15840c-5" value="User profiles module" style="shape=component;align=left;spacingLeft=36;rounded=0;shadow=0;comic=0;labelBackgroundColor=none;strokeWidth=1;fontFamily=Verdana;fontSize=12;html=1;" parent="1" vertex="1">
          <mxGeometry x="130" y="100" width="280" height="60" as="geometry" />
        </mxCell>
        <mxCell id="39150e848f15840c-7" value="Authentication" style="shape=component;align=left;spacingLeft=36;rounded=0;shadow=0;comic=0;labelBackgroundColor=none;strokeWidth=1;fontFamily=Verdana;fontSize=12;html=1;" parent="1" vertex="1">
          <mxGeometry x="540" y="110" width="170" height="60" as="geometry" />
        </mxCell>
        <mxCell id="39150e848f15840c-17" style="edgeStyle=orthogonalEdgeStyle;rounded=0;html=1;labelBackgroundColor=none;startArrow=none;startFill=0;startSize=8;endArrow=none;endFill=0;endSize=16;fontFamily=Verdana;fontSize=12;" parent="1" source="39150e848f15840c-3" target="39150e848f15840c-2" edge="1">
          <mxGeometry relative="1" as="geometry">
            <Array as="points">
              <mxPoint x="570" y="460" />
              <mxPoint x="740" y="460" />
            </Array>
          </mxGeometry>
        </mxCell>
        <mxCell id="39150e848f15840c-18" style="edgeStyle=orthogonalEdgeStyle;rounded=0;html=1;labelBackgroundColor=none;startArrow=none;startFill=0;startSize=8;endArrow=none;endFill=0;endSize=16;fontFamily=Verdana;fontSize=12;" parent="1" source="39150e848f15840c-3" target="39150e848f15840c-1" edge="1">
          <mxGeometry relative="1" as="geometry">
            <Array as="points">
              <mxPoint x="480" y="460" />
              <mxPoint x="285" y="460" />
            </Array>
          </mxGeometry>
        </mxCell>
        <mxCell id="O3OtUVcjWVz3xAKnjyLu-1" value="Projects&amp;nbsp;module" style="shape=component;align=left;spacingLeft=36;rounded=0;shadow=0;comic=0;labelBackgroundColor=none;strokeWidth=1;fontFamily=Verdana;fontSize=12;html=1;" vertex="1" parent="1">
          <mxGeometry x="130" y="170" width="280" height="60" as="geometry" />
        </mxCell>
        <mxCell id="O3OtUVcjWVz3xAKnjyLu-2" value="Smart cards module" style="shape=component;align=left;spacingLeft=36;rounded=0;shadow=0;comic=0;labelBackgroundColor=none;strokeWidth=1;fontFamily=Verdana;fontSize=12;html=1;" vertex="1" parent="1">
          <mxGeometry x="130" y="240" width="280" height="60" as="geometry" />
        </mxCell>
        <mxCell id="O3OtUVcjWVz3xAKnjyLu-3" value="Messaging API" style="shape=component;align=left;spacingLeft=36;rounded=0;shadow=0;comic=0;labelBackgroundColor=none;strokeWidth=1;fontFamily=Verdana;fontSize=12;html=1;" vertex="1" parent="1">
          <mxGeometry x="540" y="180" width="170" height="60" as="geometry" />
        </mxCell>
        <mxCell id="O3OtUVcjWVz3xAKnjyLu-4" value="Cloud file storage" style="shape=component;align=left;spacingLeft=36;rounded=0;shadow=0;comic=0;labelBackgroundColor=none;strokeWidth=1;fontFamily=Verdana;fontSize=12;html=1;" vertex="1" parent="1">
          <mxGeometry x="740" y="110" width="170" height="60" as="geometry" />
        </mxCell>
        <mxCell id="O3OtUVcjWVz3xAKnjyLu-5" value="Database" style="shape=component;align=left;spacingLeft=36;rounded=0;shadow=0;comic=0;labelBackgroundColor=none;strokeWidth=1;fontFamily=Verdana;fontSize=12;html=1;" vertex="1" parent="1">
          <mxGeometry x="740" y="180" width="170" height="60" as="geometry" />
        </mxCell>
        <mxCell id="O3OtUVcjWVz3xAKnjyLu-7" style="edgeStyle=orthogonalEdgeStyle;rounded=0;html=1;labelBackgroundColor=none;startArrow=none;startFill=0;startSize=8;endArrow=none;endFill=0;endSize=16;fontFamily=Verdana;fontSize=12;exitX=0;exitY=0;exitDx=125;exitDy=0;exitPerimeter=0;" edge="1" parent="1" source="39150e848f15840c-1">
          <mxGeometry relative="1" as="geometry">
            <Array as="points">
              <mxPoint x="530" y="185" />
            </Array>
            <mxPoint x="345" y="199.5" as="sourcePoint" />
            <mxPoint x="530" y="185" as="targetPoint" />
          </mxGeometry>
        </mxCell>
        <mxCell id="O3OtUVcjWVz3xAKnjyLu-8" value="Hybrid mobile application" style="shape=component;align=left;spacingLeft=36;rounded=0;shadow=0;comic=0;labelBackgroundColor=none;strokeWidth=1;fontFamily=Verdana;fontSize=12;html=1;" vertex="1" parent="1">
          <mxGeometry x="310" y="595" width="180" height="60" as="geometry" />
        </mxCell>
        <mxCell id="O3OtUVcjWVz3xAKnjyLu-10" value="Desktop application" style="shape=component;align=left;spacingLeft=36;rounded=0;shadow=0;comic=0;labelBackgroundColor=none;strokeWidth=1;fontFamily=Verdana;fontSize=12;html=1;" vertex="1" parent="1">
          <mxGeometry x="520" y="595" width="195" height="60" as="geometry" />
        </mxCell>
        <mxCell id="O3OtUVcjWVz3xAKnjyLu-11" value="" style="shape=image;verticalLabelPosition=bottom;labelBackgroundColor=#ffffff;verticalAlign=top;aspect=fixed;imageAspect=0;image=data:image/png,iVBORw0KGgoAAAANSUhEUgAAAGsAAAAvCAIAAABrFKMhAAAAA3NCSVQICAjb4U/gAAAFVElEQVRoBe2aTYtcRRSG8yf8AZFsAz3rYFwqzLiLOgq9MBCNoOCMqJuJqOhsjF+48CMu/MBIFkoWIsxCQc1OSFxGEBe6EOzpzpdB3Pl03sk7laq6dW93TzNy+8LlUrfqnHOrnjrnVNXtPnDzn3+7axYCB2ZR7nQh0BGcNQQ7gh3B/c7jnQ/O0wdHb68Pjh0qXMON1ULruKm/1PrVpuSDjL8M6MYvP28/cU9Z5vqFb9oNsZIgIy+jgR1ornz4UlkMR15QgrUhDDvQ4IZlgq0P5EofbBLCcq4FD+Q8wYYhLIILHsh5gg1DWAQXPJDzBJuHcBfIGYIThXAXyBmCE4Xwngfyx2e37j68etfBB1YeeuHPv0ayP/sdsxjk+unS5bK1b7+/iBgd4Fo6cvyTL7bK8nmCVz9/s3D9/ftvqdGCPE2sNjcuXki1oprLv/6hrut+8pnTkcDUj6++/qlsAqhgBNBhB1R+cu2NgkpMUMvC1bNvFXQmbYLd9smjcKxV9DiP3veUel+rkhV47fRnXCEsWw4rI13mT+7P2ykTAUyhugHZSNiPMcFr589ohzw89cjN4cByUxeYjB2DG6u1Ru69/2l63DvymH3hq69/rNVKBTRsqLmpCUHzAp8V6QzWCGfXRIWYIJ6ye8boL81yqiXYmQZbww2jd0ePzLlGzkhcfu7Ue5FYk8fpCNoBw1e8+8GXslaVQGOC6eeWK2densIZxwt68mEi7FlajvxOgRxNPsP47odLXFaHtWrkOBLQmMlfNCGAcOiDUmGJCKFQTrmjSNRn692BeoI40fb6CvnROjWF4WD0zrN2vbBQVnz0+CvqazTmcJzLD+6skjYVjdACMsVdic8Evc5KABeTKduJUh6dkWRVNMQEC1uZa+c/cr+rCoAmWkNqYblKS/UKIhDo0U7hQVJvQDblkSvrMU7LkMIoawJMEBx4N4lCCY5HpVpHgIjbPgURdMfCJsoxwTvyYPR5td+LlNPHwgRsry2n8q4xiJDXwcMP0/uw66aTKoqg6jXmsMYEvTRFzrVnBAsHEui431WFqdXxHQ2b9KS8xt0Rp7jmpbMTDF0sdC5P4axRzKIRxl1YbrguD/q9UMvl61vnqrhTr32MhpTe7TjzI+ikEXouHTPZqN5jiaOYhtHmCQ97t9AghGW0KpALCzrLqKgpc4HJl+pJWzI+P4LYV9JgLvUu3SfezaCWjcQ0hFk02O6lntVQPeylc5B9za3a07DIqGauBLM7arZTzCJT6y5FhYwPIpHuCqMQZl22e442H4/8Kw3k7FHaXdE+BhdwjQuRC0QLAs77/Ivvy0/DKFNNuP+wYlUe5I1YsxtSJvmyo5SpKDm6exTyBHU6NiOI7OoMB+FJQzLsYMIPB1Eg156I1Us47r7l9u/oUXryIKUS3kOC8ly1ClkTgrzd0RBadg5Ju0dNniANPiDDyCEMpvSkYdD+HhEGMu6cfbErYaSsl4awZCCLgB0KIgZEE4/aA4Zugk3LUMYOrXqLHmVZNbasSgxSL4IEb2hWAtG9kiBydiWFMMc7w6oqcHpRwCqQx3vAvfg8EXX6f/VYIrgDsd8bnzTWV6qoxfV8j9g6B/1FwAeiGoJI4IC1v2fGEI8dGue+tnufQqGeIHJjH1xbTjHla/q9aOHWm9p6b0RQg6/9XRigrBvljUv7OE5AkMHfWovzhzbw1e5a2oePEU1GcIyA/WDypzcSZbgfbCWpqkFNTvDWXveO3eLmiQVZNLIQpySIrfG5eGM1PRdnX9PiyukJthjKREPrCM7zf9QTTcXCCnc+2Png7e9g+xUEnQ92PrjfPvgfXWhY7mDO+qgAAAAASUVORK5CYII=;" vertex="1" parent="1">
          <mxGeometry x="630" y="100" width="68.3" height="30" as="geometry" />
        </mxCell>
        <mxCell id="O3OtUVcjWVz3xAKnjyLu-12" value="" style="shape=image;verticalLabelPosition=bottom;labelBackgroundColor=#ffffff;verticalAlign=top;aspect=fixed;imageAspect=0;image=https://talkjs.com/images/logo.svg;" vertex="1" parent="1">
          <mxGeometry x="665.04" y="175" width="35.26" height="39" as="geometry" />
        </mxCell>
        <mxCell id="O3OtUVcjWVz3xAKnjyLu-13" value="" style="shape=image;verticalLabelPosition=bottom;labelBackgroundColor=#ffffff;verticalAlign=top;aspect=fixed;imageAspect=0;image=data:image/png,iVBORw0KGgoAAAANSUhEUgAAAQMAAADCCAMAAAB6zFdcAAABC1BMVEX///+MMiPhU0MAAAC5RDSIMSFeHxnysKnlVETCRzisPi+GHgDgSDTl1ND43NefOSrOTDyJKxvgTj6lZVjnfm+BgYFoaGixsbEvLy+oqKjFxcWQkJA3Nzfw8PDf39+JiYny8vJycnLR0dFISEigoKB3d3cdHR3MzMzj4+O/v7+GIg1UGxZaWlo+Pj4oKCjZ2dnxuK91KR7Fn5by6OWIJxVmIxvvoZjxq6PqiHzjnpXiWUnfQSxPT09gYGAfHx8PDw/AXU/Ho5vYrqf30MrbxcCnLhvka1y5iX6aTkC/OCX75+PjY1Pzw7zTtrCvdmmUQjLEe3GsXVGrXFDJV0eCDADrlYjneGigXE/Pin9vaWJNAAAK9ElEQVR4nO2de1viSBbGIcEVNbYShUAQEm4SbBRbbHVUZHra0e51+zKzts73/yRbpy5JJRWuxgWTev8ilaRS51enTl2Sp0ilpKSklkH2ye+riy7DYmWfnB5kNOV40eVYnOxP6YP0SiaraA8JpQA+kE5jBoqeSF/of8oBAcoASbtMGAXqAzwDRCFJvtA/yTECPIME+YLNE/AzSAiFvp9AkAGmYC+6kK8qO0hAZBBzX+Ai4TgGsY6OOxsCgXAGinK1u+jCvpJ2clMz0CUDyUAykAwkA8lAMpAMJAPJQDKQDOLHoP/H5/7osxEx6N/+YUde8qhkn5z+qel3Z5/t8PMRMLBv77+cbnxVlvTdVB9WSNaziq5r2t3Zf/4tXvFCBn1k/8bGaS69spbVlFX71S2aVfY9rBGtrBODgMPDRZDDCxj0v33/cQD241vWFFhrOv//WTeN7JMDvErGGFAOV5cXxxyHORlsfvuefmT2uwyAwjK1iE22TsgzILZo+sPu8Tty2RwMNj/tQP0HblmjV2lKSItbkDbZQqHAgHDQtN3Vd/aMDOzNk52NjYOQe1wGivZu0aa7Gs+Acrjc/RGCYASD7MNOOtT+N8wAc9ianoGyPcL+N84gOxODFckgUQzSa9mwexLEYOXDx3992FpTskEQCWEA9mO9f/+RcEgUgxXXfqb37/3+EHMGgv0ChzgzWBHrfxSHuDJY/4BMfD+egcthNIK3zACcfHt9C3nCWBAfP3wY4wNvnQHGACDWttJhLgHWTzA/Dgx4EhnOJSZXftwYuCTAJaas/HgyoCAyswGIIQMlm5nRCyQDyUAykAwkg7gywEMlJYNm0iszDRFiwYAYv72WWd/aSmeU7e1t9Gt6FG+aAVkhwbanmclkTZWjQs7ElcE2rveAif51ZYICsYjp3BnWUEIMCltbz8Z2DUW+X5AMJAPJQDKQDCQDyUAykAwkA8lAMpAMJAPJQDKQDCQDyUAySEkGIMlAMgBJBpIBSDKQDECSwUzf7k/FIBvb9874uwLhexOeQZZ8yEy/U4glA/dzE/5jDGBAv08hyZM/yXnbDDgWCvv0JjPtJzgxY8D7RWbWz9JixkBJ/PeJkoFkIBlIBpKBT7quZU5zY/a8iDcDXdeVh6eLs/Pffv71Iz0LiDgwQJWPzN/9dXa+yoRA/EQgpiPxxhlA5V9C5a+G6fyfn39P4RJvmsHl3e4o8zkQqG18SY8LlG+YQfb3n7+tHk8gADpePb/4bzzXD7JbudP0X4jDeJ1dPF3qekzXUPBaWi6X+/H3SA5nF3eXEDJivJZGr8ohfxA5oPpXiP1KAhgQDjmOg1f/TElgQP0hhzhc3Cl++5PEgHDICPYnjUHi3i8knYGuaTMx4DdQjQMDXbvSns4+P8+wl+jT7f3z4wgOy8ngcTQDVP/K0zku66x7ytq3J8+5kB1FPQZXy8PAvqdb3wYYoPpXdlfdbbfn2VsYcdg5ffRzYAw07cwOL9BC1L8/OPUzgF1kL4599TT3HtOwwzDnD4SBrv8as7f7QtT//nhKGcDu0krAftBL9hq3EYccDRDAQLv6tTx7K3sCX1jPwq7Sv8J2W49gz/n+t+9fDg5OV9a05fMBpv79n6PsB0Xy3wP9b/c/vi6lDzDZ405G9h8UY5+y3ErG/3CMl2QgGYAkA8kAJBlIBiDJQDIASQaSAUgykAxA3x/D/mwpjIF+9WvRhX0tbT5viAukIgNd212etdLodfsl6AsCA/3qKc4EQEFfCDCIuQ8w3T7zvuBjoF8lggCI9wWOQUJ8gMnzBZdBgnyAifkCZZAwH2AiFDCDBPoAE1BADBLqA0y3zxtf3w4BxzTN9ivke/vPywiYVuH6umAZleAJp2N0qi/KWlBXRRIetGA5NdXVocmfadLUcoRFruAcm9FlGIVKqk8D94Rz5KWaYzKYTYRrMbL8opBB6r9QaxUa+GeXnnDgYL9Wrh1GCgHllkf5vUZEmFfYNWsOPSjDkUUOgEge/8KY7Gie10NZOXse6WUQ1EnZO2y75proR4umdvwXvUQtVR2myssVFVGb3+OPLWZugS8ncuDDaJ6HnasaHdMI5LgOzyVAWLRV3l9Rz7FvR/E8g4QC1BiOvMS2aSLalWahO8j3SJLZ6nYLJf6RVaM2QGkWC0wVMyAWYSpGodsdWF7Acci5njVAyXWxTGByzZdyQ6u8algdNxExGEbivNeqepMifZGX+z6EXIv2QA149g09MNgl5qHXR5F+taMGRBy1UmDHQ3Yz4r6fghiEtdcLlslGzz+yfSlhRW8EWsy8cmjIBS+7dlOLyDcGri0NEpSIaG2WfdZixzVDGbT5FFq5iMGhwyULELoqPyQYobbXW7xMYAsedkJtOSwVMUC1VGx2Oi0oI1yU73Sa+yojjzsmy6w69RKuTnDoat6iKjebQ+ozPVzTRr1qQqynhqG7i+iCrmGS/IWxSR2jsQQ2QQTR9I2uy3Z4qkW3culoZQ+3O3uPEVM5YjU1EMFoGs5t6GXr3LBmg/MckkDQC3UE6mY3NSOUQ7VuNELvm0fgvyXyE1Xy0KbJRc4X8diUhp4OvbyjcpEhpZKYwQlCSQF+QJhh/TkZ48EPg7kOOxAH6mxSAAURJk1VcqJrC7fNI66/tTi7ilwZy1w1Q9SALrS5R4whOvL1KdSAQ5aRC5akA0Iw2+3iHB6Tp16XCxgD/yCWNBW14eum5lWFq++q6oVZKDpfcLfHUN1hBPf4AelaXIFzEcsDHX2FuofheR/K6Ib6TFBOqSFEUyLjMG9d4/bkhN04m8A+F3GDNXbMwB2BlbxknoGrqnEEXZ0n3MLJHR2eX8odhRj8Y8GNQhkg2e0ycwehF7RrfFCaXxCl6lS9vOeURc5XS/yTfAzqRrN2uI9LyDHA8522dy8ft2oklBu+5OJoBiDbrImegJVXp+hBJ6mnCrKFYpVUbojuMeAdlWdgFzlHLwdqyvIYeOtAExik2DBLrPKh+vJZTktkUBKKFcrAKbp3FDpdngGgcftYKxoGJHaL85lyoKnNIRs47nkCu46EYoUxIEtPjVqzDRbyDAo+/2yObgtjGFS7h8HeshLaGPxd9FwygnDBsHqwWGEMwNJrt4L3PAZlf/TyBz/sJDepiQzEKZM7lqu0eZvNlzNoBBsZWFAIFiuEQUX1jQhUtyeFa7nxAA44POUhibWT2gLURUpIGgRndsHDOeSowTUIPJCrpCYy8JvmuAzwrMk3fh36HmHSWDGJgdj6TZJS9XtINzRSziJL9CQYeDRTExn4Z2w1Vm24m/Evc+Z9z2DTjUkM6l50JqrcUGv3eKvrQiXOrCOxZzFoNzeBgcO3BTKyh4IORagO7xktFi8n9gu4Lxy4xpo3rP7hYWxu4gwF5LPKVEP6JFqTk2IiRJIuLmKPLjOkCNNavWOUXPXoewJ4G2LXD1UWOyf3jQ2c6U251OmU8KSbRVrIpAhxu4JzDs5XZ1QhLKDQodckBmRhpDHogm/ukR6Q9Jc+lWiO6JoGnn4Oq1MysBuBrIq0CDYelx5dk/MTxxXjVWGt2CfcpB2oUreTDx0jcetmZZxVeRSDlDF0j1mR/QyOQke8xj6fEzdcKISmzqV2K58vicnlfL5lpizunNnKt2x2gG4ivuNYuGKvmxVyk5Wy0Tm/WmRoYDfxvKdouWajZ7e8SGSFFgTNlyw6GC34FxDqZHjbaC7DywD7la713Rd+Y2Xe/KSkpKSkpKSkpKSkpKSkOP0P9sZ/6TWYKN8AAAAASUVORK5CYII=;" vertex="1" parent="1">
          <mxGeometry x="808" y="82" width="66.75" height="50" as="geometry" />
        </mxCell>
        <mxCell id="O3OtUVcjWVz3xAKnjyLu-16" value="" style="shape=image;verticalLabelPosition=bottom;labelBackgroundColor=#ffffff;verticalAlign=top;aspect=fixed;imageAspect=0;image=https://docs.signalfx.com/en/latest/_images/integration_googlecloudstorage.png;" vertex="1" parent="1">
          <mxGeometry x="869" y="80" width="70" height="70" as="geometry" />
        </mxCell>
        <mxCell id="O3OtUVcjWVz3xAKnjyLu-17" value="" style="shape=image;verticalLabelPosition=bottom;labelBackgroundColor=#ffffff;verticalAlign=top;aspect=fixed;imageAspect=0;image=https://img.reg.ru/faq/20-08-2020-postgresql.png;" vertex="1" parent="1">
          <mxGeometry x="834" y="160" width="81" height="90" as="geometry" />
        </mxCell>
        <mxCell id="O3OtUVcjWVz3xAKnjyLu-18" value="" style="shape=image;verticalLabelPosition=bottom;labelBackgroundColor=#ffffff;verticalAlign=top;aspect=fixed;imageAspect=0;image=https://upload.wikimedia.org/wikipedia/commons/thumb/a/ac/IOS-Emblem.jpg/1024px-IOS-Emblem.jpg;" vertex="1" parent="1">
          <mxGeometry x="350" y="580" width="64.73" height="30" as="geometry" />
        </mxCell>
        <mxCell id="O3OtUVcjWVz3xAKnjyLu-19" value="" style="shape=image;verticalLabelPosition=bottom;labelBackgroundColor=#ffffff;verticalAlign=top;aspect=fixed;imageAspect=0;image=https://upload.wikimedia.org/wikipedia/commons/thumb/3/3e/Android_logo_2019.png/599px-Android_logo_2019.png;" vertex="1" parent="1">
          <mxGeometry x="430" y="565" width="49.91" height="50" as="geometry" />
        </mxCell>
        <mxCell id="O3OtUVcjWVz3xAKnjyLu-20" value="" style="shape=image;verticalLabelPosition=bottom;labelBackgroundColor=#ffffff;verticalAlign=top;aspect=fixed;imageAspect=0;image=https://cordova.apache.org/static/img/artwork/cordova_logo_normal_dark_large.png;" vertex="1" parent="1">
          <mxGeometry x="321.33000000000004" y="640" width="112.07" height="50" as="geometry" />
        </mxCell>
        <mxCell id="O3OtUVcjWVz3xAKnjyLu-21" value="" style="shape=image;verticalLabelPosition=bottom;labelBackgroundColor=#ffffff;verticalAlign=top;aspect=fixed;imageAspect=0;image=https://habrastorage.org/r/w780/getpro/habr/post_images/5be/92e/7eb/5be92e7ebeb7ee4a194b45645538320f.jpg;" vertex="1" parent="1">
          <mxGeometry x="424.4" y="644" width="60.11" height="20" as="geometry" />
        </mxCell>
        <mxCell id="O3OtUVcjWVz3xAKnjyLu-23" value="" style="shape=image;verticalLabelPosition=bottom;labelBackgroundColor=#ffffff;verticalAlign=top;aspect=fixed;imageAspect=0;image=https://storage.googleapis.com/chrome-enterprise/img/pages/browser/download/help-support-fingertips.svg;" vertex="1" parent="1">
          <mxGeometry x="640.3" y="565" width="60" height="60" as="geometry" />
        </mxCell>
        <mxCell id="O3OtUVcjWVz3xAKnjyLu-24" value="" style="shape=image;verticalLabelPosition=bottom;labelBackgroundColor=#ffffff;verticalAlign=top;aspect=fixed;imageAspect=0;image=data:image/png,iVBORw0KGgoAAAANSUhEUgAAAHcAAAB3CAMAAAAO5y+4AAAA/FBMVEX///9ChfT7vAXqQzU0qFP7ugA7gvTm7/78/f+Aqvf8/v14woospk00qU07l6pChPbl8+nqPzDpOir+67r93pIgp1b97ezznJbpNiX3vLfjRTr+8vHA1fv5zMnpPjaNs/imw/n61NH1r6rylY/sV0zxioLtY1jb6P1WkfXz9/5udsl4cr/xdCX0jBz+8tL/+OSXuvn//PD+6K7802vQ4Pz93Ib8xzt1rj+DsDrvbGLweXD739zha2lfl/V1pPffR0DsUTDtXy3vaSn3nxX5rw75uk7+5qH8z1nxcxH7wkj8xSf913mAtlOV0afS69lUtGyAucSnxG684cVlu3tfeaFiAAAFVUlEQVRoge2aa3faRhCGESCBsRMsQZEEVgFb3JwYGYNpIYU42MGNXSdt8v//S1c3LtLMalco7jk9ej/52BbPeWdnZ2ZXZDKpUqVKlep/o1pbP1cviFT1XG/XXgVpqLOcomma4sr+qT5TjZ8Kr513TFmRcwHJ5HdmR/9ZaKMja3II6rMVLdcxkofW9K6sIExfitzVG8li9W44vKDrmZ4g1ehqLFSHrHWTinbtAl1VkCxfJJJhhhm1rkEp5uGWGyqXWd+yemB+Neb8VIc8Pwj8ocsbY1/aH4X42LYZzy3xW79c9GK7PQD7riz1Yzo+wO3Hy7IgSP1YjmsHuRWIpMWAH9uYxU0p+aOLJeAlP7gTG1u/9LAE3CxyYvVDg+zpjA/7ge6WdHp34NCUQDlzU2qjssCVW405hUv6sDlXdaPdbhu6OjdzOy2SBFnYk3TEs8TnOFbWTLW9WwQbbdX022QgyA64xY6t1dFxJjc3wpW3YcxzcjjIrjjKxwVmVzGRQaah1xXIrW34mhWLJZWcU/GHSMOE3NpiTS1k68p1ejvX30kgVmoy2q1vWb9ulFO67YgHJ30YzFinfbuEdfdptXpPtFrdybPoqamwAMGMK+xCc3erq/sHUczaEsWH+89rqxT1aA923GeplrpGnN69v3eJOxLFaXUY8fCkDxpmqZYkzJ+uHoJQj5x9rNBNn0GGWdoDqRlXIau76Ee65yUALjPUDv1PCtUjW5Tne1CkowNtfYnA2uRphfIJ14BhaRlhuJKNxtqWb0foRxTAzOpPaNgqE9YmU2INGRYkoYVj1yIj1o416niClEt0jW+ZqQ4YddyH2wPWiascVCfUmOMmbFgQQHCFPcgeeIyUELB2OI6B5Bo+cWJJCiIVpIdgySAf6kylKT/2BolzAVlge8oLFsxqcthMEaqVcG5ZrBt3i8VrVvEI5QYr9Zgbi7qlcgMzQIWPSnVLROHuT3m4XdEVh1uHK+ErvDPlWQiWAJ/Gt9Xq83QPHYXNnF03FyhZ2h5ckGQWs89DtzSUrOp2n0UE2VVx0hSQOt3y/2f0CHLF6W5dsJ79GS/Kra8eMl0u/T08hN3eBspgxaloTG5dDcCOuM2sNWRXfA59jl3BObBETdCw3xChMIPdxu7PjEH2HEOVSzpy/zgCOoKYhbpraczlNgMPPWVvjLfAxQU/Zsjl1ha4xG6trEDLSxtVeQT2RLcN3wBhniaEzWSAzeQlFpDOSJjjCBh6vMoBVCuRex1RAUMPzuVN28S4/5Ffcf0KXCivwkUyrvC8gvbRU1LYIjBbevsIGnLEqAsFVk1CVMFvSNAsKY4T4oKjljtxlMCTQjI7CTqySAuv8YN9ED/ucQi80NpMdkBiUQ+4zBqAk86m78OHBfHLobnVg88rmyNDCZnrntaHWC624Mu7nbMZGGh76Pjr5etpCVWmiGrQQ6h79w0jONDZ3/Mn+W/HqP4+QrUQJOQsWu7vvHCAbjYI9pd8Pn+C6s1bCRcMFQInUSu8hcXsbzaWojdvseM1RYGDaMiw5zZxbuDgPQpcM0S7jccNvarcHyoJNooakxu60RmLXEGOxwVu/HcOhSxBjsUF38sO/U3M5jYGF3nz7oEZ3fJz0ffuNzaYKaXicCX8XXDFfnPBFmRuriRQbr6HU9Yg83KBq8ldWf+csGK5uJEvGEoveVYyO5d6ye/r9JiRzMqVhCiznr5/O2Ehs3ElaXHG/GWKr8RzJJqBS/pwk/oCJ6jS6csPp+fH5jq9f9nq8X5xhCz095fjH5SBg8wbOLa/bLbOYn8Fiwxvp7gGBVSDAb/PVKlSpUqV6tX1L89XoXKWX6hqAAAAAElFTkSuQmCC;" vertex="1" parent="1">
          <mxGeometry x="250" y="60" width="40" height="40" as="geometry" />
        </mxCell>
        <mxCell id="O3OtUVcjWVz3xAKnjyLu-25" value="" style="shape=image;verticalLabelPosition=bottom;labelBackgroundColor=#ffffff;verticalAlign=top;aspect=fixed;imageAspect=0;image=data:image/png,iVBORw0KGgoAAAANSUhEUgAAAHcAAABHCAMAAAAKnSgVAAAArlBMVEX///8lLz7/mQD/lwD/kwD/lQAgKzv/kQAaJjcjLT0SIDIAFCpscHgAACEAFywAECiXmp8ACiULHC/b3N719fbh4uPR0tQAAB27vcDu7u+xs7fCw8apq690eIDo6OlBSFT/rVb/8uf/+/b/7t7/yZiDho0AABldYmswOUZLUVyfoqePkpc6QU7/0KT/qEX/sV7/tWv/w4v/5Mv/nij/1K//vHsAAA3/iQD/3cD/ojUk4j6CAAAHiElEQVRoge1XWYOivBIVISSAgAQX3JeWpl3b9Y7+/z92U0mABO3u6fnaeZp60hDq1HqqqNV0aY07Sb/fH8S92s9Iqz0YrlbD5DOFnXVmRGFAKfWiYJLGxYNeE6Sj3x7A2bClHw7hcFDeaRiRR12Xej6dpBUFuW7Xc23HyMUmUTbOtXVd9u5rrN5PXtmZGzY0JaMILrryX7wMiaowNO6RVxEtr0ghVN7rhPDXTdUXMgJnjqM53OWvSVuGvl1RaHc108HbMEe1meT3HE/ee4On9lJ9IxBXQtUFYZ+X8D/NSCqxCSFSJ11VcMeecNB3J8vlxPapuGcbMn7cuVCpjdgz7jU1XTgKeAgGvohZZGSNUSObeJHrGO4DXBLQbBiLsI2Hb1yF4fX5/wFHCcuCqQ2pzIWa4CVYSzL+2+AB9LI8sq3O2vGiZhX31WsMtJMRV5zH9pVjKAluEJkLWp71+FnATU24pYGOk4zaFdzafX9x4w0qajqDP45RPt3YUArs0C9VDcLyDZ4Ze1JV+hsyCJTY9gM9wWMGYWdgGu0Xb6RuiSVCnta+Ly2eYVdEauxBuoIkfwhhJOmKXSGj4g2OJUtnYpcvf1MmqsnC/gIjJWAF9I3zVhjKu7c7Vu5nf4LLmSGHarpavt6Y2iDmPEHzBPNSsjfij6i74CE1fiG8NPI+iXnNhJI5W6/AB8KrIvgQA8Ndiz+iIBxvcKf2e7g1zrSBLCKoOXiydpXigRgU/NWSvBJmv4U8HiT9ZCDYQ8dN1aiviWAq6Jy8xdvQ8HaR7VUoicWzR19AJyO7GwZB4EVdO0uThobbAbp1iPgD8fUZE/Ug677gOB5ZpXMymrM8CYNR8uH8Td6UqeXYbkA0Hmw58PCVJ7gH85LmBsgW5+FRqTTzjEKIRz4IeONualX4l+sVLAH9Ix5A9GUpbTh7qSqb1FU1RZMH1S2j4hAaRn4UUpfYFdwkKBIMTUU5JyQ0766xb1SmBItL6oekdMeOquNITgGDGmnSabfjTtJscNpQNPXKuoHOFoXbgw7mg48PqDCpKh6km8gtoP0KcMznjRGt1e0hJboHnIJCYAkPCkAUCmSas4OowkfV02m+dfPKedUHklhaKlMLmlPF5R5BB8d+2T08wU1hy8e82E6JSLV+o8fNqU6tdcXfcVcmGAxQeQmU8f2DDj/AZe0wEouRq0ZE7m2V6TGq4PJBAewIIc0bBsrJMVoiGNFnW7dgbG0fE2TqVYqCN4aKywPfbfMVpttSbjEKgUx9PuZjXrpBXzkSy1KFwzkXaUtkh8ey36YqBESFxRdsudsWNWmJ/UVNhfCX9rV7TbFgbZQjWGdJAxo5Ty97l8JZG1jUv9ueNFxyF1SxGOlbSSwXZJWBwDdnMyIqH/J79tD9cpsSe5Onbu5jyRrqfpwv8pFSCNw+B+JFx8UhXwggEmUMmKyqbNziPKSFT640BpkUtLEOHEMS5Ui5180ZT3GN9z4Y6SkWdv4Xbppj5c14wsNcKYG+GB2ENuPxOB5mPszzpViRFdeKrVk1Jt/g1S0XOtN2fWO04rQ7WE3E1CnHs5Q3SaFuFEYR5QvLUrKY+jnWz79OlOqIfWmLWh58WsOU8SImoWRoJ6x+l7XdyhSED0y5Uyn6ZCEYvhKDluRetRAYndx9XcIQvh+Esa3OSjfkeVh77NNRrZaaiL1tq2ciLLarntUSN6h4YkfLR33WSmlA4COUsO/vVFZ2w9/oJsYExNWKtUPgC9zVu7/W6i+ZIsK/5NmnKA0mH21Zvf5oOdlMsnRQTsNqPpg+JndvMnmkcNBsLA03oPakMfyUU54grUeG/pN/8k/+QObH7WG/u+1275fty/wvgc62U4wthEwQZGFzyw63x2ej7pFl1lUx8ax2/IX3L8+EPWDEkKRIYMx83WNkXZ4X8csvi8XYPO3e39+ndSw8B1xmUB3hxbOQX85XtY6uJwDGPMJnbNYt8/B3quyIGa41E79NVDcRvsz+Au6M4Zon6eNsZzErkLV/Zm3PS9z34vCCIe4In7bPCffLBeMD/IA4W4vywREh3loW+nmn5+cpayYTw++FlZdV/nCPRXshXD/8ZEcfJW8If6cmS69+4WwiyScI334Gen691IU7prXlJ5Uwi1u5ywBtnS7X/5br+fmdpU1oxDvRLFer6CJVjjtcsijCeHo4/hn27Hq5MXKSbiC0led7VEeXRy+cNRJn2ObucP1eY7+cLzeEUaHGxAUPz+umXlWKLOqWPj3Y5GKOn4+zr1yfz44MEkaeajqelkBnXLcOH76+wJXBJcAtRu6H8/X4UjGAwV3Pi8t0d7J0SI66U9tyyiL/meXbE64i1/k0QxZzHsSsn0CYYi5iqldfQNZUI4PZLzGKPpHrDqMH0JoR5gMo5YKFL5VULhDePoZT5OVi3oX7t4UF5na+q4cTrrbuQ5lf3y2M/gDUesw78/fz78AK6D36IuB3jlq3xY+Q3fGws+4r/CEmxrf9N7v9U5kfF1OELetR0QKgiaDPbpfzM1aH2XF7md5O0EgWE8TE4m3Ftrb94vrUrRRY4oXRxHa7ANlur1dGI9/n8P8DyL6UWORKSl8AAAAASUVORK5CYII=;" vertex="1" parent="1">
          <mxGeometry x="299" y="74" width="33.52" height="20" as="geometry" />
        </mxCell>
      </root>
    </mxGraphModel>
  </diagram>
</mxfile>
